<svg id="Grupo_953" data-name="Grupo 953" xmlns="http://www.w3.org/2000/svg" width="33.142" height="41.256" viewBox="0 0 33.142 41.256">
  <g id="Grupo_952" data-name="Grupo 952">
    <path id="Caminho_1455" data-name="Caminho 1455" d="M21.587,9.014,12.281,19.8c-1.358,1.633-2.427,3.151-2.271,5.534a6.787,6.787,0,1,0,12.224-4.465,1.229,1.229,0,0,1-.276-.707,1.111,1.111,0,0,1,.339-.91l.876-.876A6.515,6.515,0,0,1,23.8,19a7.377,7.377,0,0,1,1.4,2.424,7.792,7.792,0,0,1,.3,1.139,7.542,7.542,0,0,1,.123,1.192.908.908,0,1,0,1.809-.053,10.078,10.078,0,0,0-.541-2.965A9.376,9.376,0,0,0,25.1,17.652c-.189-.212-.385-.418-.591-.614l1.116-1.112a10.948,10.948,0,0,1,1.746,2.161,11.579,11.579,0,0,1,1.69,5.647.9.9,0,1,0,1.8-.07,13.638,13.638,0,0,0-2-6.66A12.879,12.879,0,0,0,26.959,14.6l-.637.634,1.208-1.205a1.25,1.25,0,0,1,.827-.385,1.225,1.225,0,0,1,.873.279,10.011,10.011,0,0,1,2.214,3.187,16.571,16.571,0,1,1-30.132,1.9C3.145,14.183,11.75,5.338,16.01.541A1.262,1.262,0,0,1,16.79.2a1.246,1.246,0,0,1,.837.249L23.2,5.265A1.255,1.255,0,0,1,23.327,7Z" transform="translate(-0.237 -0.2)" fill="#949494" fill-rule="evenodd"/>
    <path id="Caminho_1456" data-name="Caminho 1456" d="M6758.258,3659.9a1.024,1.024,0,0,1-.448-1.3.876.876,0,0,1,1.2-.481,12.013,12.013,0,0,1,3.008,2.165l-1.332,1.328A10.025,10.025,0,0,0,6758.258,3659.9Z" transform="translate(-6735.294 -3645.878)" fill="#949494"/>
  </g>
  <path id="Caminho_1457" data-name="Caminho 1457" d="M6283.592,4604.234a1.02,1.02,0,0,1-.475-1.292.874.874,0,0,1,1.185-.5,8.437,8.437,0,0,1,2.158,1.478l-1.338,1.335A6.416,6.416,0,0,0,6283.592,4604.234Z" transform="translate(-6262.186 -4587.077)" fill="#949494"/>
</svg>
