<svg xmlns="http://www.w3.org/2000/svg" width="2043.719" height="805.512" viewBox="0 0 2043.719 805.512">
  <g id="Grupo_3826" data-name="Grupo 3826" transform="translate(123.719 -4160)">
    <path id="Caminho_1507" data-name="Caminho 1507" d="M0,0H1920V805.512H0Z" transform="translate(0 4160)" fill="#282869"/>
    <g id="Camada_x0020_1" transform="translate(305.294 4381)">
      <path id="Caminho_1450" data-name="Caminho 1450" d="M-429.013,919H639.053c40.866,0,74.3,33.436,74.3,74.141h0a74.521,74.521,0,0,1-74.3,74.3H-429.013Z" transform="translate(0 -770.557)" fill="#b7db57" fill-rule="evenodd"/>
      <path id="Caminho_1451" data-name="Caminho 1451" d="M-429.013,1838H33.323a74.279,74.279,0,0,0-74.3,74.141v0c0,40.866-33.275,74.3-74.141,74.3H-429.013Z" transform="translate(0 -1541.114)" fill="#d40f7d" fill-rule="evenodd"/>
      <path id="Caminho_1452" data-name="Caminho 1452" d="M-429.013,0H468.642a74.348,74.348,0,0,1,74.141,74.141,74.313,74.313,0,0,0,74.3,74.3h-1046.1Z" fill="#00c8d2" fill-rule="evenodd"/>
    </g>
  </g>
</svg>
