<svg xmlns="http://www.w3.org/2000/svg" width="94.522" height="94.522" viewBox="0 0 94.522 94.522">
  <g id="Grupo_1002" data-name="Grupo 1002" transform="translate(-1738.419 -78.059)">
    <g id="Caminho_647" data-name="Caminho 647" transform="translate(1738.419 78.059)" fill="none">
      <path d="M47.261,0A47.261,47.261,0,1,1,0,47.261,47.261,47.261,0,0,1,47.261,0Z" stroke="none"/>
      <path d="M 47.26098251342773 5 C 41.55358123779297 5 36.01956558227539 6.116683959960938 30.8126335144043 8.31903076171875 C 25.78083038330078 10.44729614257813 21.26074981689453 13.49516296386719 17.37795257568359 17.37795257568359 C 13.49516296386719 21.26074981689453 10.44729614257813 25.78083038330078 8.31903076171875 30.8126335144043 C 6.116683959960938 36.01956558227539 5 41.55358123779297 5 47.26098251342773 C 5 52.9683837890625 6.116683959960938 58.50239944458008 8.31903076171875 63.70933532714844 C 10.44729614257813 68.74113464355469 13.49516296386719 73.26121520996094 17.37795257568359 77.14401245117188 C 21.26074981689453 81.02680206298828 25.78083038330078 84.07466888427734 30.8126335144043 86.20293426513672 C 36.01956558227539 88.40528106689453 41.55358123779297 89.52196502685547 47.26098251342773 89.52196502685547 C 52.9683837890625 89.52196502685547 58.50239944458008 88.40528106689453 63.70933532714844 86.20293426513672 C 68.74113464355469 84.07466888427734 73.26121520996094 81.02680206298828 77.14401245117188 77.14401245117188 C 81.02680206298828 73.26121520996094 84.07466888427734 68.74113464355469 86.20293426513672 63.70933532714844 C 88.40528106689453 58.50239944458008 89.52196502685547 52.9683837890625 89.52196502685547 47.26098251342773 C 89.52196502685547 41.55358123779297 88.40528106689453 36.01956558227539 86.20293426513672 30.8126335144043 C 84.07466888427734 25.78083038330078 81.02680206298828 21.26074981689453 77.14401245117188 17.37795257568359 C 73.26121520996094 13.49516296386719 68.74113464355469 10.44729614257813 63.70933532714844 8.31903076171875 C 58.50239944458008 6.116683959960938 52.9683837890625 5 47.26098251342773 5 M 47.26098251342773 0 C 73.36250305175781 0 94.52196502685547 21.15946960449219 94.52196502685547 47.26098251342773 C 94.52196502685547 73.36250305175781 73.36250305175781 94.52196502685547 47.26098251342773 94.52196502685547 C 21.15946960449219 94.52196502685547 0 73.36250305175781 0 47.26098251342773 C 0 21.15946960449219 21.15946960449219 0 47.26098251342773 0 Z" stroke="none" fill="#f65767"/>
    </g>
    <g id="Grupo_1001" data-name="Grupo 1001" transform="translate(1756.142 96.167)">
      <path id="Caminho_1448" data-name="Caminho 1448" d="M57.9,19.642,53.476,15.25a6.785,6.785,0,0,1-9.556,0,6.5,6.5,0,0,1-1.968-4.778A6.507,6.507,0,0,1,43.92,5.693L39.527,1.3a4.539,4.539,0,0,0-6.359,0L1.3,33.133a4.538,4.538,0,0,0,0,6.359L5.692,43.92a6.508,6.508,0,0,1,4.779-1.968,6.5,6.5,0,0,1,4.778,1.968,6.786,6.786,0,0,1,0,9.556L19.676,57.9a4.539,4.539,0,0,0,6.36,0L57.9,26a4.539,4.539,0,0,0,0-6.359Zm-9.522,7.027L26.668,48.381a2.29,2.29,0,0,1-3.162,0L10.787,35.663a2.207,2.207,0,0,1,0-3.163L32.5,10.787a2.292,2.292,0,0,1,3.163,0L48.381,23.506a2.205,2.205,0,0,1,0,3.162Z" transform="translate(0 -0.001)" fill="#f65767"/>
      <path id="Caminho_1449" data-name="Caminho 1449" d="M133.748,113.639l11.1,11.1-20.1,20.1-11.1-11.1Z" transform="translate(-99.666 -99.655)" fill="#f65767" opacity="0.66"/>
    </g>
  </g>
</svg>
