<svg xmlns="http://www.w3.org/2000/svg" width="44.034" height="44.034" viewBox="0 0 44.034 44.034">
  <g id="instagram" transform="translate(0 0)" opacity="0.9">
    <path id="Caminho_1346" data-name="Caminho 1346" d="M40.682,23.88H27.558a3.8,3.8,0,0,0-3.8,3.8V40.8a3.8,3.8,0,0,0,3.8,3.8H40.682a3.8,3.8,0,0,0,3.8-3.8V27.679A3.8,3.8,0,0,0,40.682,23.88ZM34.12,41.063a6.822,6.822,0,1,1,6.822-6.822A6.83,6.83,0,0,1,34.12,41.063ZM41.162,28.83a1.614,1.614,0,1,1,1.614-1.614A1.616,1.616,0,0,1,41.162,28.83Z" transform="translate(-12.103 -12.165)" fill="#fff"/>
    <path id="Caminho_1347" data-name="Caminho 1347" d="M40.788,36.971a3.939,3.939,0,1,0,3.939,3.938A3.944,3.944,0,0,0,40.788,36.971Z" transform="translate(-18.771 -18.833)" fill="#fff"/>
    <path id="Caminho_1348" data-name="Caminho 1348" d="M22.017,0A22.017,22.017,0,1,0,44.034,22.017,22.018,22.018,0,0,0,22.017,0ZM35.261,28.639a6.689,6.689,0,0,1-6.682,6.682H15.455a6.689,6.689,0,0,1-6.682-6.682V15.514a6.689,6.689,0,0,1,6.682-6.682H28.579a6.689,6.689,0,0,1,6.682,6.682Z" transform="translate(0 0)" fill="#fff"/>
  </g>
</svg>
