<svg xmlns="http://www.w3.org/2000/svg" width="144.884" height="81.429" viewBox="0 0 144.884 81.429">
  <g id="Grupo_347" data-name="Grupo 347" transform="translate(-1313.768 -2011.063)">
    <path id="União_46" data-name="União 46" d="M0,48.884v-6.11c0-6.723,11-12.222,24.442-12.222s24.442,5.5,24.442,12.222v6.11ZM12.22,12.222a12.221,12.221,0,1,1,12.222,12.22A12.222,12.222,0,0,1,12.22,12.222Z" transform="translate(1409.768 2027.063)" fill="#fff"/>
    <path id="União_47" data-name="União 47" d="M0,48.884v-6.11c0-6.723,11-12.222,24.442-12.222s24.442,5.5,24.442,12.222v6.11ZM12.22,12.222a12.221,12.221,0,1,1,12.222,12.22A12.222,12.222,0,0,1,12.22,12.222Z" transform="translate(1313.768 2027.063)" fill="#fff"/>
    <path id="União_1" data-name="União 1" d="M0,81.429V71.252c0-11.2,18.321-20.36,40.714-20.36s40.714,9.161,40.714,20.36V81.429ZM20.355,20.36A20.357,20.357,0,1,1,40.714,40.715,20.359,20.359,0,0,1,20.355,20.36Z" transform="translate(1347.768 2011.063)" fill="#fff"/>
  </g>
</svg>
