<svg xmlns="http://www.w3.org/2000/svg" width="44.035" height="44.034" viewBox="0 0 44.035 44.034">
  <path id="Subtração_3" data-name="Subtração 3" d="M22.018,44.034A22.017,22.017,0,0,1,6.449,6.449,22.017,22.017,0,1,1,37.586,37.585,21.874,21.874,0,0,1,22.018,44.034Zm5.227-23.216c1.744,0,2.665,1.238,2.665,3.579v8.468h5.263V23.789c0-4.46-2.265-7.123-6.059-7.123a5.2,5.2,0,0,0-4.742,2.614V17.037H19.108c.064,1.342.012,13.352,0,15.747v.082h5.263v-8.84a3.49,3.49,0,0,1,.174-1.284A2.891,2.891,0,0,1,27.244,20.818ZM10.937,17.037V32.866H16.2V17.037ZM13.6,9.407a2.743,2.743,0,1,0-.069,5.47h.034a2.744,2.744,0,1,0,.035-5.47Z" transform="translate(0 0)" fill="#fff" opacity="0.9"/>
</svg>
