<svg xmlns="http://www.w3.org/2000/svg" width="276.606" height="108.293" viewBox="0 0 276.606 108.293">
  <g id="Camada_x0020_1" transform="translate(-0.237 -0.199)">
    <g id="_1379766419984" transform="translate(0.237 0.2)">
      <path id="Caminho_1501" data-name="Caminho 1501" d="M13640.813,6238.64a1.383,1.383,0,0,1,.452,1.125,2.2,2.2,0,0,1-.514,1.193,10.168,10.168,0,0,1-2.964,2.205,9.651,9.651,0,0,1-4.61,1.073,10.952,10.952,0,0,1-4.383-.819,9.582,9.582,0,0,1-3.2-2.206,9.146,9.146,0,0,1-1.954-3.25,12.008,12.008,0,0,1-.643-3.9v-6.222a10.965,10.965,0,0,1,.705-3.9,9.514,9.514,0,0,1,2.039-3.25,9.8,9.8,0,0,1,3.189-2.2,10.414,10.414,0,0,1,4.243-.82,9.9,9.9,0,0,1,4.133.82,10.16,10.16,0,0,1,3,2.013,1.641,1.641,0,0,1,0,2.37l-1.08,1.072a1.493,1.493,0,0,1-2.318-.052,5.756,5.756,0,0,0-1.614-.994,5.356,5.356,0,0,0-2.117-.419,4.511,4.511,0,0,0-3.9,1.613,6.145,6.145,0,0,0-1.185,3.756v6.222a8.461,8.461,0,0,0,.254,2.065,4.535,4.535,0,0,0,.844,1.726,4.166,4.166,0,0,0,1.562,1.16,6.061,6.061,0,0,0,2.429.426,4.951,4.951,0,0,0,2.546-.627,10.069,10.069,0,0,0,1.7-1.185,1.578,1.578,0,0,1,2.372,0Zm15.067.793a7.787,7.787,0,0,0,3.25-.679,8.448,8.448,0,0,0,2.6-1.813,7.993,7.993,0,0,0,1.727-2.684,9.046,9.046,0,0,0,0-6.623,7.988,7.988,0,0,0-1.727-2.684,8.407,8.407,0,0,0-2.6-1.8,8.1,8.1,0,0,0-6.5,0,8.363,8.363,0,0,0-2.607,1.8,8.249,8.249,0,0,0-1.726,2.684,9.166,9.166,0,0,0,0,6.623,8.254,8.254,0,0,0,1.726,2.684,8.4,8.4,0,0,0,2.607,1.813A7.754,7.754,0,0,0,13655.88,6239.433Zm0,4.8a12.837,12.837,0,0,1-5.177-1.046,13.479,13.479,0,0,1-7.067-7.068,13.342,13.342,0,0,1,0-10.352,13.479,13.479,0,0,1,7.067-7.068,13.308,13.308,0,0,1,10.343,0,13.524,13.524,0,0,1,7.077,7.068,13.331,13.331,0,0,1,0,10.352,13.524,13.524,0,0,1-7.077,7.068A12.758,12.758,0,0,1,13655.88,6244.235Zm34.063-.566a1.673,1.673,0,0,1-1.245-.454,1.655,1.655,0,0,1-.453-1.238v-14.144a5.745,5.745,0,0,0-1.324-3.756,5.876,5.876,0,0,0-8.088,0,5.707,5.707,0,0,0-1.334,3.756v14.144a1.565,1.565,0,0,1-1.7,1.691h-1.689a1.678,1.678,0,0,1-1.247-.454,1.659,1.659,0,0,1-.452-1.238v-14.144a10.132,10.132,0,0,1,.767-3.9,10.015,10.015,0,0,1,2.116-3.25,10.127,10.127,0,0,1,3.277-2.2,11.691,11.691,0,0,1,8.6,0,9.871,9.871,0,0,1,5.4,5.455,10.255,10.255,0,0,1,.761,3.9v14.144a1.569,1.569,0,0,1-1.692,1.691Zm25.3,0a1.568,1.568,0,0,1-1.7-1.691v-14.144a5.7,5.7,0,0,0-1.324-3.756,5.876,5.876,0,0,0-8.088,0,5.711,5.711,0,0,0-1.333,3.756v14.144a1.555,1.555,0,0,1-1.692,1.691h-1.7a1.569,1.569,0,0,1-1.7-1.691v-14.144a10.3,10.3,0,0,1,.766-3.9,9.816,9.816,0,0,1,5.405-5.455,11.665,11.665,0,0,1,8.592,0,10.149,10.149,0,0,1,3.287,2.2,10.255,10.255,0,0,1,2.874,7.155v14.144a1.556,1.556,0,0,1-1.69,1.691Zm26.15-5.543a1.47,1.47,0,0,1,.48,1.133,2.03,2.03,0,0,1-.48,1.185,10.763,10.763,0,0,1-3.337,2.605,10.945,10.945,0,0,1-5.264,1.186,11.264,11.264,0,0,1-4.27-.768,9.43,9.43,0,0,1-5.341-5.281,10.175,10.175,0,0,1-.732-3.852v-6.667a11.721,11.721,0,0,1,.644-3.877,8.891,8.891,0,0,1,5.036-5.342,10.505,10.505,0,0,1,4.209-.793,10.693,10.693,0,0,1,4.244.793,9.748,9.748,0,0,1,3.2,2.143,9.237,9.237,0,0,1,2.03,3.2,10.555,10.555,0,0,1,.715,3.877v3.39a1.709,1.709,0,0,1-.452,1.246,1.728,1.728,0,0,1-1.248.453h-12.722a.5.5,0,0,0-.566.566v1.011a5.369,5.369,0,0,0,1.272,3.625,5.006,5.006,0,0,0,3.982,1.472,6.179,6.179,0,0,0,3.338-.767,9.239,9.239,0,0,0,1.813-1.446,1.533,1.533,0,0,1,2.38-.052Zm-3.965-10.457a5.791,5.791,0,0,0-1.185-3.678,4.643,4.643,0,0,0-3.905-1.525,4.242,4.242,0,0,0-3.729,1.525,6.231,6.231,0,0,0-1.071,3.678v.279a.5.5,0,0,0,.566.567h8.767a.5.5,0,0,0,.558-.567Zm26.153,10.971a1.38,1.38,0,0,1,.452,1.125,2.24,2.24,0,0,1-.5,1.193,10.2,10.2,0,0,1-2.973,2.205,9.647,9.647,0,0,1-4.609,1.073,10.945,10.945,0,0,1-4.383-.819,9.442,9.442,0,0,1-3.189-2.206,8.853,8.853,0,0,1-1.951-3.25,11.663,11.663,0,0,1-.655-3.9v-6.222a10.965,10.965,0,0,1,.705-3.9,9.534,9.534,0,0,1,2.041-3.25,9.87,9.87,0,0,1,3.188-2.2,10.419,10.419,0,0,1,4.244-.82,9.878,9.878,0,0,1,4.132.82,10.166,10.166,0,0,1,3,2.013,1.643,1.643,0,0,1,0,2.37l-1.073,1.072a1.5,1.5,0,0,1-2.326-.052,5.807,5.807,0,0,0-1.613-.994,5.332,5.332,0,0,0-2.117-.419,4.511,4.511,0,0,0-3.9,1.613,6.145,6.145,0,0,0-1.185,3.756v6.222a8.414,8.414,0,0,0,.253,2.065,4.454,4.454,0,0,0,.854,1.726,4.054,4.054,0,0,0,1.552,1.16,6.147,6.147,0,0,0,2.431.426,4.938,4.938,0,0,0,2.545-.627,10.042,10.042,0,0,0,1.7-1.185,1.577,1.577,0,0,1,2.371,0Zm13.97,5.029c-2.824,0-4.915-.768-6.248-2.319a9.508,9.508,0,0,1-2.014-6.449V6223.59a.491.491,0,0,0-.558-.557h-1.7a1.57,1.57,0,0,1-1.7-1.7v-1.411a1.7,1.7,0,0,1,.454-1.247,1.671,1.671,0,0,1,1.245-.453h1.7a.5.5,0,0,0,.558-.567V6213.7a1.7,1.7,0,0,1,.452-1.246,1.723,1.723,0,0,1,1.246-.454h1.7a1.719,1.719,0,0,1,1.245.454,1.688,1.688,0,0,1,.454,1.246v3.956a.5.5,0,0,0,.559.567h4.243a1.673,1.673,0,0,1,1.246.453,1.7,1.7,0,0,1,.453,1.247v1.411a1.568,1.568,0,0,1-1.7,1.7h-4.243a.491.491,0,0,0-.559.557v11.033a5.545,5.545,0,0,0,.758,3.11,3.284,3.284,0,0,0,2.911,1.133h1.133a1.566,1.566,0,0,1,1.7,1.69v1.42a1.567,1.567,0,0,1-1.7,1.691Z" transform="translate(-13504.283 -6157.867)" fill="#fff"/>
      <path id="Caminho_1502" data-name="Caminho 1502" d="M13624.725,1878.908a1.6,1.6,0,0,1-1.725-1.734v-34.448a1.584,1.584,0,0,1,1.725-1.726h1.726a1.587,1.587,0,0,1,1.734,1.726v9.682a.515.515,0,0,0,.575.584h5.7a10.3,10.3,0,0,1,3.946.741,9.5,9.5,0,0,1,3.11,2.048,9.354,9.354,0,0,1,2.041,3.111,9.989,9.989,0,0,1,.749,3.887v6.336a10.458,10.458,0,0,1-.713,3.887,9.053,9.053,0,0,1-2.049,3.111,9.606,9.606,0,0,1-3.2,2.048,11.026,11.026,0,0,1-4.111.749Zm14.4-16.131a4.651,4.651,0,0,0-4.888-4.9h-5.474a.508.508,0,0,0-.575.575v14.981a.508.508,0,0,0,.575.575h5.474a4.88,4.88,0,0,0,3.451-1.351,4.654,4.654,0,0,0,1.437-3.547Zm27.792,10.484a1.527,1.527,0,0,1,.486,1.15,2.06,2.06,0,0,1-.486,1.211,11.243,11.243,0,0,1-8.76,3.861,11.645,11.645,0,0,1-4.348-.776,9.981,9.981,0,0,1-3.312-2.161,9.725,9.725,0,0,1-2.134-3.224,10.341,10.341,0,0,1-.75-3.922v-6.8a11.9,11.9,0,0,1,.662-3.939,9.057,9.057,0,0,1,5.134-5.447,10.688,10.688,0,0,1,4.286-.81,10.961,10.961,0,0,1,4.323.81,9.873,9.873,0,0,1,3.25,2.187,9.337,9.337,0,0,1,2.074,3.259,10.846,10.846,0,0,1,.723,3.939v3.46a1.706,1.706,0,0,1-.462,1.263,1.685,1.685,0,0,1-1.271.462h-12.958a.508.508,0,0,0-.575.575v1.037a5.428,5.428,0,0,0,1.3,3.686,5.074,5.074,0,0,0,4.061,1.5,6.332,6.332,0,0,0,3.4-.776,9.543,9.543,0,0,0,1.839-1.473,1.733,1.733,0,0,1,1.272-.6,1.707,1.707,0,0,1,1.15.549Zm-4.036-10.658a5.884,5.884,0,0,0-1.21-3.739,4.72,4.72,0,0,0-3.976-1.56,4.329,4.329,0,0,0-3.8,1.56,6.313,6.313,0,0,0-1.1,3.739v.287a.508.508,0,0,0,.575.575h8.933a.508.508,0,0,0,.574-.575Zm25.193-4.148a.507.507,0,0,0-.574-.575h-4.323a5.668,5.668,0,0,0-4.461,1.786,6.225,6.225,0,0,0-1.585,4.261v5.708a5,5,0,0,0,1.3,3.564,4.675,4.675,0,0,0,3.6,1.386,6.025,6.025,0,0,0,2.675-.549,5.458,5.458,0,0,0,1.873-1.464,6.628,6.628,0,0,0,1.125-2.048,7.486,7.486,0,0,0,.374-2.336Zm1.726,20.453a1.587,1.587,0,0,1-1.263-.523,1.641,1.641,0,0,1-.463-1.15.391.391,0,0,0-.261-.427.424.424,0,0,0-.488.2,5.772,5.772,0,0,1-2.4,1.787,9.653,9.653,0,0,1-3.825.688,8.949,8.949,0,0,1-3.686-.75,8.157,8.157,0,0,1-2.877-2.135,10.057,10.057,0,0,1-1.909-3.312,12.392,12.392,0,0,1-.687-4.226v-5.133a11.34,11.34,0,0,1,.81-4.261,10.15,10.15,0,0,1,2.273-3.486,10.952,10.952,0,0,1,3.486-2.327,11.118,11.118,0,0,1,4.428-.863h8.585a1.585,1.585,0,0,1,1.733,1.726v22.457a1.6,1.6,0,0,1-1.733,1.734Zm23.758-24.192a1.572,1.572,0,0,1,1.724-1.726H13717a1.585,1.585,0,0,1,1.724,1.726v14.4a10.6,10.6,0,0,1-.748,3.974,9.8,9.8,0,0,1-5.387,5.56,11.713,11.713,0,0,1-8.7,0,10.415,10.415,0,0,1-3.313-2.248,9.876,9.876,0,0,1-2.127-3.312,10.8,10.8,0,0,1-.748-3.974v-14.4a1.743,1.743,0,0,1,.463-1.272,1.709,1.709,0,0,1,1.264-.453h1.733a1.715,1.715,0,0,1,1.264.453,1.743,1.743,0,0,1,.463,1.272v14.4a5.971,5.971,0,0,0,1.3,3.834,4.861,4.861,0,0,0,4.053,1.638,4.788,4.788,0,0,0,4.035-1.638,6.093,6.093,0,0,0,1.273-3.834Zm20.06,24.192c-2.876,0-5-.793-6.36-2.362a9.692,9.692,0,0,1-2.049-6.571v-11.521a.508.508,0,0,0-.576-.575h-1.725a1.6,1.6,0,0,1-1.734-1.726v-1.438a1.588,1.588,0,0,1,1.734-1.726h1.725a.511.511,0,0,0,.576-.584v-4.026a1.741,1.741,0,0,1,.462-1.272,1.712,1.712,0,0,1,1.263-.453h1.734a1.715,1.715,0,0,1,1.264.453,1.737,1.737,0,0,1,.462,1.272v4.026a.511.511,0,0,0,.576.584h4.321a1.719,1.719,0,0,1,1.265.453,1.746,1.746,0,0,1,.461,1.272v1.438a1.71,1.71,0,0,1-.461,1.264,1.689,1.689,0,0,1-1.265.462h-4.321a.508.508,0,0,0-.576.575v11.233a5.65,5.65,0,0,0,.776,3.172,3.348,3.348,0,0,0,2.972,1.15h1.149a1.6,1.6,0,0,1,1.726,1.726v1.438a1.6,1.6,0,0,1-1.726,1.734Zm22.257-7.32h-5.359a10.343,10.343,0,0,1-3.912-.714,9,9,0,0,1-3.06-1.987,8.659,8.659,0,0,1-1.952-3.024,10.359,10.359,0,0,1-.7-3.834v-7.311a1.746,1.746,0,0,1,.461-1.272,1.725,1.725,0,0,1,1.273-.453h1.726a1.584,1.584,0,0,1,1.726,1.726v7.311a4.3,4.3,0,0,0,4.671,4.671h5.124a.508.508,0,0,0,.575-.575v-11.407a1.586,1.586,0,0,1,1.725-1.726h1.727a1.725,1.725,0,0,1,1.272.453,1.743,1.743,0,0,1,.463,1.272v17.455a8.174,8.174,0,0,1-.751,3.46,10.133,10.133,0,0,1-5.473,5.76,10.916,10.916,0,0,1-4.436.863,16.621,16.621,0,0,1-4.9-.61,13.682,13.682,0,0,1-3.451-1.577,1.915,1.915,0,0,1-.837-1.037,1.6,1.6,0,0,1,.14-1.272l.7-1.325a1.465,1.465,0,0,1,2.239-.688,15.914,15.914,0,0,0,2.649,1.15,11.556,11.556,0,0,0,3.46.462c1.96,0,3.364-.532,4.2-1.586a4.8,4.8,0,0,0,1.271-3.6A.511.511,0,0,0,13755.87,1871.588Z" transform="translate(-13504.283 -1824.958)" fill="#fff"/>
      <g id="Grupo_3776" data-name="Grupo 3776" transform="translate(0 0)">
        <g id="Grupo_3775" data-name="Grupo 3775">
          <path id="Caminho_1503" data-name="Caminho 1503" d="M56.278,23.335,31.851,51.64c-3.564,4.288-6.37,8.27-5.961,14.527A17.9,17.9,0,0,0,44.906,82.838c12.383-.793,22.083-15.407,13.072-28.392a3.225,3.225,0,0,1-.723-1.856,2.916,2.916,0,0,1,.889-2.388l2.3-2.3a17.1,17.1,0,0,1,1.638,1.638A19.362,19.362,0,0,1,65.76,55.9a20.454,20.454,0,0,1,.793,2.989,19.8,19.8,0,0,1,.322,3.129,2.384,2.384,0,1,0,4.749-.139A26.454,26.454,0,0,0,70.2,54.1a24.611,24.611,0,0,0-4.7-8.087c-.5-.558-1.011-1.1-1.551-1.612l2.928-2.919a28.736,28.736,0,0,1,4.584,5.673A30.394,30.394,0,0,1,75.9,61.975a2.372,2.372,0,1,0,4.723-.183,35.8,35.8,0,0,0-5.237-17.481,33.8,33.8,0,0,0-5.011-6.318l-1.673,1.664,3.172-3.163a3.281,3.281,0,0,1,2.17-1.011,3.215,3.215,0,0,1,2.292.732c3.111,3.068,3.739,4.462,5.813,8.366A43.5,43.5,0,1,1,3.059,49.566C7.869,36.9,30.457,13.688,41.638,1.1A3.314,3.314,0,0,1,43.686.207a3.27,3.27,0,0,1,2.2.654L60.522,13.5a3.3,3.3,0,0,1,.322,4.558Z" transform="translate(-0.237 -0.2)" fill="#fff" fill-rule="evenodd"/>
          <path id="Caminho_1504" data-name="Caminho 1504" d="M6759.117,3662.938a2.69,2.69,0,0,1-1.176-3.417,2.3,2.3,0,0,1,3.146-1.263,31.5,31.5,0,0,1,7.9,5.682l-3.495,3.486A26.273,26.273,0,0,0,6759.117,3662.938Z" transform="translate(-6698.841 -3626.146)" fill="#fff"/>
        </g>
        <path id="Caminho_1505" data-name="Caminho 1505" d="M6284.482,4607.285a2.679,2.679,0,0,1-1.247-3.39,2.294,2.294,0,0,1,3.112-1.325,22.089,22.089,0,0,1,5.664,3.878l-3.512,3.5A16.871,16.871,0,0,0,6284.482,4607.285Z" transform="translate(-6228.292 -4562.25)" fill="#fff"/>
      </g>
    </g>
  </g>
</svg>
