<svg xmlns="http://www.w3.org/2000/svg" xmlns:xlink="http://www.w3.org/1999/xlink" width="204.363" height="79.635" viewBox="0 0 204.363 79.635">
  <defs>
    <linearGradient id="linear-gradient" x1="0.92" y1="0.235" x2="0.064" y2="0.767" gradientUnits="objectBoundingBox">
      <stop offset="0" stop-color="#d40f7d"/>
      <stop offset="0.549" stop-color="#f03e97"/>
      <stop offset="1" stop-color="#d40f7d"/>
    </linearGradient>
  </defs>
  <g id="Camada_x0020_1" transform="translate(-0.166 -0.199)">
    <path id="Caminho_1428" data-name="Caminho 1428" d="M13554.165,6169.686a1.029,1.029,0,0,1,.339.835,1.627,1.627,0,0,1-.383.88,7.5,7.5,0,0,1-2.193,1.631,7.069,7.069,0,0,1-3.406.8,8.121,8.121,0,0,1-3.237-.61,6.884,6.884,0,0,1-2.362-1.63,6.723,6.723,0,0,1-1.443-2.4,8.845,8.845,0,0,1-.479-2.887v-4.6a8,8,0,0,1,.529-2.887,6.986,6.986,0,0,1,1.5-2.4,7.4,7.4,0,0,1,2.364-1.63,7.723,7.723,0,0,1,3.131-.6,7.352,7.352,0,0,1,3.055.6,7.631,7.631,0,0,1,2.216,1.482,1.225,1.225,0,0,1,0,1.761l-.8.79a1.108,1.108,0,0,1-1.718-.039,4.067,4.067,0,0,0-1.187-.732,3.973,3.973,0,0,0-1.569-.317,3.324,3.324,0,0,0-2.878,1.2,4.5,4.5,0,0,0-.884,2.778v4.6a6.062,6.062,0,0,0,.19,1.527,3.264,3.264,0,0,0,.626,1.277,2.988,2.988,0,0,0,1.146.854,4.41,4.41,0,0,0,1.8.317,3.711,3.711,0,0,0,1.881-.458,7.147,7.147,0,0,0,1.252-.88,1.176,1.176,0,0,1,1.765,0Zm11.138.588a5.731,5.731,0,0,0,2.4-.5,6.223,6.223,0,0,0,1.926-1.334,5.983,5.983,0,0,0,1.273-1.987,6.752,6.752,0,0,0,0-4.894,5.941,5.941,0,0,0-1.273-1.98,6.224,6.224,0,0,0-1.926-1.34,5.96,5.96,0,0,0-4.8,0,6.2,6.2,0,0,0-1.92,1.34,5.93,5.93,0,0,0-1.275,1.98,6.726,6.726,0,0,0,0,4.894,5.972,5.972,0,0,0,1.275,1.987,6.2,6.2,0,0,0,1.92,1.334A5.747,5.747,0,0,0,13565.3,6170.274Zm0,3.555a9.456,9.456,0,0,1-3.826-.777,9.98,9.98,0,0,1-5.225-5.225,9.871,9.871,0,0,1,0-7.651,9.975,9.975,0,0,1,5.225-5.224,9.878,9.878,0,0,1,7.649,0,9.97,9.97,0,0,1,5.227,5.224,9.906,9.906,0,0,1,0,7.651,9.975,9.975,0,0,1-5.227,5.225A9.448,9.448,0,0,1,13565.3,6173.829Zm25.182-.42a1.166,1.166,0,0,1-1.256-1.256V6161.7a4.193,4.193,0,0,0-.983-2.778,4.324,4.324,0,0,0-5.974,0,4.221,4.221,0,0,0-.985,2.778v10.449a1.155,1.155,0,0,1-1.248,1.256h-1.257a1.162,1.162,0,0,1-1.257-1.256V6161.7a7.372,7.372,0,0,1,4.559-6.92,8.683,8.683,0,0,1,6.356,0,7.508,7.508,0,0,1,2.42,1.63,7.4,7.4,0,0,1,1.566,2.4,7.613,7.613,0,0,1,.563,2.887v10.449a1.15,1.15,0,0,1-1.252,1.256Zm18.7,0a1.162,1.162,0,0,1-1.253-1.256V6161.7a4.2,4.2,0,0,0-.985-2.778,4.325,4.325,0,0,0-5.975,0,4.219,4.219,0,0,0-.983,2.778v10.449a1.157,1.157,0,0,1-1.25,1.256h-1.254a1.243,1.243,0,0,1-.924-.336,1.221,1.221,0,0,1-.332-.919V6161.7a7.538,7.538,0,0,1,.563-2.887,7.411,7.411,0,0,1,1.564-2.4,7.63,7.63,0,0,1,2.428-1.63,8.668,8.668,0,0,1,6.351,0,7.252,7.252,0,0,1,3.994,4.033,7.576,7.576,0,0,1,.564,2.887v10.449a1.154,1.154,0,0,1-1.248,1.256Zm19.33-4.1a1.109,1.109,0,0,1,.357.834,1.472,1.472,0,0,1-.357.881,7.8,7.8,0,0,1-2.462,1.923,8.16,8.16,0,0,1-3.892.88,8.261,8.261,0,0,1-3.154-.569,6.977,6.977,0,0,1-3.955-3.9,7.419,7.419,0,0,1-.542-2.843v-4.931a8.391,8.391,0,0,1,.486-2.868,6.585,6.585,0,0,1,1.415-2.362,6.813,6.813,0,0,1,2.3-1.587,7.845,7.845,0,0,1,3.12-.583,7.98,7.98,0,0,1,3.133.583,7.168,7.168,0,0,1,2.363,1.587,6.924,6.924,0,0,1,1.5,2.362,7.851,7.851,0,0,1,.527,2.868v2.506a1.159,1.159,0,0,1-1.257,1.255h-9.407a.363.363,0,0,0-.412.416v.755a3.954,3.954,0,0,0,.937,2.675,3.7,3.7,0,0,0,2.948,1.087,4.537,4.537,0,0,0,2.465-.563,6.987,6.987,0,0,0,1.34-1.067,1.255,1.255,0,0,1,.92-.44,1.271,1.271,0,0,1,.835.394Zm-2.925-7.73a4.3,4.3,0,0,0-.88-2.72,3.43,3.43,0,0,0-2.88-1.132,3.151,3.151,0,0,0-2.764,1.132,4.643,4.643,0,0,0-.79,2.72v.207a.363.363,0,0,0,.412.415h6.48a.37.37,0,0,0,.421-.415Zm19.332,8.1a1.03,1.03,0,0,1,.327.835,1.631,1.631,0,0,1-.372.88,7.549,7.549,0,0,1-2.2,1.631,7.086,7.086,0,0,1-3.406.8,8.15,8.15,0,0,1-3.243-.61,6.908,6.908,0,0,1-2.361-1.63,6.659,6.659,0,0,1-1.439-2.4,8.673,8.673,0,0,1-.487-2.887v-4.6a8.08,8.08,0,0,1,.527-2.887,7.024,7.024,0,0,1,1.508-2.4,7.383,7.383,0,0,1,2.358-1.63,7.773,7.773,0,0,1,3.138-.6,7.386,7.386,0,0,1,3.054.6,7.47,7.47,0,0,1,2.21,1.482,1.2,1.2,0,0,1,0,1.761l-.791.79a1.1,1.1,0,0,1-1.714-.039,4.2,4.2,0,0,0-1.191-.732,3.957,3.957,0,0,0-1.567-.317,3.343,3.343,0,0,0-2.886,1.2,4.534,4.534,0,0,0-.876,2.778v4.6a5.847,5.847,0,0,0,.188,1.527,3.273,3.273,0,0,0,.623,1.277,3.017,3.017,0,0,0,1.152.854,4.377,4.377,0,0,0,1.8.317,3.7,3.7,0,0,0,1.879-.458,7.839,7.839,0,0,0,1.258-.88,1.163,1.163,0,0,1,1.753,0Zm10.319,3.723a5.792,5.792,0,0,1-4.619-1.715,7.069,7.069,0,0,1-1.48-4.765v-8.358a.372.372,0,0,0-.42-.419h-1.256a1.151,1.151,0,0,1-1.249-1.256v-1.043a1.15,1.15,0,0,1,1.249-1.255h1.256a.369.369,0,0,0,.42-.415v-2.926a1.155,1.155,0,0,1,1.248-1.256h1.257a1.235,1.235,0,0,1,.92.337,1.248,1.248,0,0,1,.334.919v2.926a.369.369,0,0,0,.417.415h3.141a1.225,1.225,0,0,1,.917.336,1.251,1.251,0,0,1,.329.918v1.043a1.255,1.255,0,0,1-.329.919,1.229,1.229,0,0,1-.917.337h-3.141a.373.373,0,0,0-.417.419v8.15a4.072,4.072,0,0,0,.565,2.3,2.417,2.417,0,0,0,2.147.835h.845a1.223,1.223,0,0,1,.917.337,1.253,1.253,0,0,1,.329.919v1.042a1.254,1.254,0,0,1-.329.919,1.229,1.229,0,0,1-.917.336Z" transform="translate(-13453.175 -6109.99)" fill="#d40f7d" fill-rule="evenodd"/>
    <path id="Caminho_1429" data-name="Caminho 1429" d="M41.375,17.217,23.411,38.029c-2.622,3.146-4.68,6.079-4.376,10.681a13.1,13.1,0,1,0,23.6-8.623,2.4,2.4,0,0,1-.537-1.366,2.15,2.15,0,0,1,.654-1.754l10.1-10.073a2.425,2.425,0,0,1,3.289-.214c2.285,2.259,2.745,3.289,4.273,6.156A31.985,31.985,0,1,1,2.236,36.5C5.784,27.186,22.388,10.115,30.616.858A2.438,2.438,0,0,1,32.118.2,2.407,2.407,0,0,1,33.73.683L44.5,9.979a2.424,2.424,0,0,1,.233,3.347Z" transform="translate(0 0)" fill-rule="evenodd" fill="url(#linear-gradient)"/>
    <g id="Grupo_945" data-name="Grupo 945" transform="translate(43.472 23.637)">
      <path id="Caminho_1430" data-name="Caminho 1430" d="M6691.008,3624.442a1.977,1.977,0,0,1-.868-2.517,1.683,1.683,0,0,1,2.311-.927Zm14.792,18.237-3.482.135-.039-.764-.065-.757-.09-.745-.117-.737-.135-.732-.157-.719-.18-.711-.2-.7-.227-.687-.246-.679-.265-.667-.284-.654-.312-.641-.322-.627-.345-.615-.362-.6-.382-.584-.4-.575-.416-.551-.434-.543-.446-.524-.466-.505-.479-.491-.5-.473-.5-.454-.525-.44-.537-.414-.55-.394-.563-.382-.576-.357-.589-.33-.6-.318,1.443-3.443.707.37.692.395.679.42.667.448.648.466.634.492.621.511.6.538.582.556.563.583.55.595.532.622.5.634.493.654.471.681.447.692.428.706.408.725.388.745.361.757.336.771.312.788.292.8.265.809.24.829.214.842.186.848.162.86.136.875.1.879.079.888Zm0,0a1.749,1.749,0,1,1-3.482.135Z" transform="translate(-6689.984 -3620.823)" fill="#282869"/>
    </g>
    <g id="Grupo_946" data-name="Grupo 946" transform="translate(40.429 29.68)">
      <path id="Caminho_1431" data-name="Caminho 1431" d="M6220.9,4558a1.976,1.976,0,0,1-.906-2.5,1.684,1.684,0,0,1,2.292-.984Zm10.131,6.5-3.256,1.334h0l-.116-.322-.13-.326-.136-.323-.135-.311-.149-.312-.156-.311-.163-.3-.167-.3-.169-.291-.18-.285-.187-.28-.194-.278-.2-.271-.206-.266-.208-.259-.22-.252-.219-.247-.228-.238-.239-.241-.233-.226-.247-.221-.253-.221-.252-.206-.258-.2-.259-.195-.271-.194-.272-.174-.272-.175-.286-.167-.284-.164-.284-.148-.3-.142,1.386-3.483.368.188.369.187.363.208.357.207.355.227.344.226.341.241.338.251.331.259.321.265.312.272.31.285.3.291.3.3.292.3.287.318.27.324.274.331.257.335.253.343.247.351.238.356.233.369.22.37.213.375.208.389.193.388.187.4.183.4.167.408.164.414.148.421Zm1.048,5.729-3.481.1-.009-.15-.006-.149,0-.148-.007-.149-.013-.143-.013-.148-.013-.148-.013-.144-.019-.142-.019-.143-.015-.148-.026-.144-.018-.141-.02-.137-.026-.142-.024-.143-.028-.142-.026-.143-.032-.136-.032-.142-.034-.136-.031-.135-.033-.137-.031-.142-.038-.129-.041-.136-.039-.137-.038-.135-.048-.128-.037-.136-.047-.131-.044-.136,3.256-1.334.058.175.059.163.051.173.06.169.05.168.044.175.054.174.044.175.047.169.044.174.038.181.046.176.039.175.032.181.041.174.031.182.033.181.031.175.026.182.034.187.025.182.019.182.025.182.02.187.021.182.013.188.021.182.011.188.013.188.007.186.006.189Zm0,0a1.748,1.748,0,1,1-3.481.1Z" transform="translate(-6219.852 -4554.355)" fill="#00c8d2"/>
    </g>
    <path id="Caminho_1432" data-name="Caminho 1432" d="M13542.275,1828.024a1.279,1.279,0,0,1-.937-.343,1.253,1.253,0,0,1-.339-.939v-25.467a1.179,1.179,0,0,1,1.276-1.275h1.275a1.238,1.238,0,0,1,.938.343,1.256,1.256,0,0,1,.342.932v7.16a.377.377,0,0,0,.422.427h4.215a7.616,7.616,0,0,1,2.924.556,6.8,6.8,0,0,1,3.809,3.807,7.448,7.448,0,0,1,.551,2.874v4.687a7.714,7.714,0,0,1-.529,2.868,6.635,6.635,0,0,1-1.514,2.3,7.117,7.117,0,0,1-2.367,1.508,8.1,8.1,0,0,1-3.043.557Zm10.643-11.924a3.43,3.43,0,0,0-3.621-3.619h-4.045a.376.376,0,0,0-.422.427v11.07a.377.377,0,0,0,.422.427h4.045a3.6,3.6,0,0,0,2.558-1,3.438,3.438,0,0,0,1.063-2.615Zm20.541,7.749a1.126,1.126,0,0,1,.361.854,1.566,1.566,0,0,1-.361.894,8.156,8.156,0,0,1-2.513,1.955,8.26,8.26,0,0,1-3.96.893,8.6,8.6,0,0,1-3.22-.57,7.428,7.428,0,0,1-2.447-1.6,7.152,7.152,0,0,1-1.572-2.382,7.654,7.654,0,0,1-.555-2.9v-5.024a8.65,8.65,0,0,1,.493-2.913,6.715,6.715,0,0,1,1.446-2.409,6.982,6.982,0,0,1,2.338-1.618,8.019,8.019,0,0,1,3.174-.6,8.16,8.16,0,0,1,3.2.6,7.452,7.452,0,0,1,2.4,1.618,7,7,0,0,1,1.532,2.409,7.989,7.989,0,0,1,.534,2.913v2.557a1.169,1.169,0,0,1-1.273,1.275h-9.583a.378.378,0,0,0-.428.427v.764a4.026,4.026,0,0,0,.96,2.725,3.77,3.77,0,0,0,3,1.107,4.62,4.62,0,0,0,2.507-.57,7.249,7.249,0,0,0,1.364-1.087,1.157,1.157,0,0,1,1.79-.045Zm-2.984-7.879a4.378,4.378,0,0,0-.893-2.764,3.509,3.509,0,0,0-2.938-1.153,3.206,3.206,0,0,0-2.811,1.153,4.694,4.694,0,0,0-.81,2.764v.214a.378.378,0,0,0,.428.427h6.6a.375.375,0,0,0,.421-.427Zm18.625-3.062a.378.378,0,0,0-.426-.427h-3.191a4.186,4.186,0,0,0-3.3,1.321,4.6,4.6,0,0,0-1.174,3.153v4.214a3.717,3.717,0,0,0,.959,2.635,3.461,3.461,0,0,0,2.661,1.023,4.521,4.521,0,0,0,1.983-.4,4.04,4.04,0,0,0,1.383-1.087,4.858,4.858,0,0,0,.83-1.509,5.43,5.43,0,0,0,.278-1.729Zm1.275,15.116a1.193,1.193,0,0,1-.938-.388,1.226,1.226,0,0,1-.337-.848.29.29,0,0,0-.194-.317.315.315,0,0,0-.362.149,4.2,4.2,0,0,1-1.765,1.314,7.022,7.022,0,0,1-2.833.511,6.59,6.59,0,0,1-2.725-.55,6.042,6.042,0,0,1-2.129-1.58,7.488,7.488,0,0,1-1.405-2.447,9.337,9.337,0,0,1-.514-3.127v-3.787a8.423,8.423,0,0,1,.6-3.153,7.529,7.529,0,0,1,1.681-2.577,8.091,8.091,0,0,1,2.575-1.722,8.225,8.225,0,0,1,3.28-.641h6.341a1.191,1.191,0,0,1,1.283,1.275v16.6a1.265,1.265,0,0,1-.348.939,1.248,1.248,0,0,1-.936.343Zm17.556-17.886a1.186,1.186,0,0,1,1.281-1.275h1.275a1.3,1.3,0,0,1,.941.343,1.256,1.256,0,0,1,.334.932v10.649a7.952,7.952,0,0,1-.548,2.933,7.27,7.27,0,0,1-3.983,4.111,8.709,8.709,0,0,1-6.43,0,7.688,7.688,0,0,1-2.454-1.664,7.258,7.258,0,0,1-1.57-2.447,7.934,7.934,0,0,1-.55-2.933v-10.649a1.259,1.259,0,0,1,.332-.932,1.291,1.291,0,0,1,.942-.343h1.274a1.274,1.274,0,0,1,.94.343,1.261,1.261,0,0,1,.342.932v10.649a4.422,4.422,0,0,0,.956,2.829,4.3,4.3,0,0,0,5.984,0,4.539,4.539,0,0,0,.932-2.829Zm14.831,17.886a5.884,5.884,0,0,1-4.7-1.748,7.174,7.174,0,0,1-1.515-4.855v-8.513a.378.378,0,0,0-.429-.427h-1.275a1.189,1.189,0,0,1-1.274-1.276v-1.068a1.229,1.229,0,0,1,.347-.932,1.245,1.245,0,0,1,.928-.343h1.275a.379.379,0,0,0,.429-.427v-2.978a1.179,1.179,0,0,1,1.28-1.275h1.277a1.168,1.168,0,0,1,1.274,1.275v2.978a.379.379,0,0,0,.429.427H13624a1.181,1.181,0,0,1,1.28,1.275v1.068a1.26,1.26,0,0,1-.34.933,1.245,1.245,0,0,1-.94.343h-3.187a.378.378,0,0,0-.429.427v8.3a4.169,4.169,0,0,0,.574,2.343,2.465,2.465,0,0,0,2.2.855h.845a1.172,1.172,0,0,1,1.28,1.275v1.062a1.181,1.181,0,0,1-1.28,1.281Zm16.455-5.412h-3.962a7.684,7.684,0,0,1-2.9-.53,6.731,6.731,0,0,1-2.257-1.47,6.443,6.443,0,0,1-1.448-2.234,7.777,7.777,0,0,1-.506-2.829v-5.412a1.254,1.254,0,0,1,.336-.932,1.267,1.267,0,0,1,.938-.343h1.274a1.272,1.272,0,0,1,.942.343,1.257,1.257,0,0,1,.336.932v5.412a3.173,3.173,0,0,0,3.451,3.444h3.792a.375.375,0,0,0,.422-.421v-8.435a1.185,1.185,0,0,1,1.281-1.275h1.274a1.284,1.284,0,0,1,.939.343,1.254,1.254,0,0,1,.336.932v12.9a6.018,6.018,0,0,1-.548,2.557,7.694,7.694,0,0,1-1.58,2.537,7.485,7.485,0,0,1-2.467,1.722,8.044,8.044,0,0,1-3.286.641,12.45,12.45,0,0,1-3.615-.447,10.268,10.268,0,0,1-2.553-1.172,1.432,1.432,0,0,1-.619-.77,1.151,1.151,0,0,1,.108-.933l.511-.984a1.086,1.086,0,0,1,1.658-.5,12.342,12.342,0,0,0,1.961.848,8.4,8.4,0,0,0,2.549.344,3.785,3.785,0,0,0,3.117-1.172,3.58,3.58,0,0,0,.933-2.667A.377.377,0,0,0,13639.217,1822.612Z" transform="translate(-13453.175 -1788.15)" fill="#282869"/>
  </g>
</svg>
