<svg xmlns="http://www.w3.org/2000/svg" width="48.059" height="48.067" viewBox="0 0 48.059 48.067">
  <g id="mangu_svg" transform="translate(-0.075)">
    <path id="Caminho_373" data-name="Caminho 373" d="M39.028,26.864c-.991,2.785-3.691,10.518.88,11.578a5.56,5.56,0,0,0,3.349-.513,3.48,3.48,0,0,1,4.58,2.469c1.555,4.922-3.307,7.9-7.681,7.656-4.58.2-8.006-3.127-9.143-7.417-2.3-6.784,1.367-14.363,3.922-20.481,2.273-5.434,4.264-10.45,2.632-10.98C33.927,8,27.314,22.771,25.348,25.129c-1.333,1.6-3.033,3.153-5.058,3.153-3.631,0-4.879-2.905-4.879-6.682,0-3.572.76-5.682,1.316-8.912.256-1.512.538-3.067-.786-3.512C12.156,7.9-.387,43.508,13.087,37.886a3.462,3.462,0,0,1,4.58,2.461c1.982,6.289-6.511,8.425-10.048,7.442A9.291,9.291,0,0,1,1.3,41.962C-.533,37.433.014,31.4.86,26.667c.128-.743.282-1.478.453-2.2A75.652,75.652,0,0,1,4.731,13.628c.555-1.376,1.145-2.734,1.8-4.059C9.148,4.289,12.335,0,18.017,0c8.929,0,1.991,15.91,4.631,16.508S30.048,2.469,35.679.4c4.084-1.512,8.9,1.41,9.7,6.3C46.59,11.116,40.805,21.822,39.028,26.864Z" transform="translate(0)" fill="#d1d1d1" fill-rule="evenodd"/>
  </g>
</svg>
